<svg width="815" height="815" viewBox="0 0 815 815" fill="none" xmlns="http://www.w3.org/2000/svg">
<g clip-path="url(#clip0_14_7)">
<path d="M758.825 200.948L685.03 234.217L669.414 320.476C666.66 335.646 653.449 346.662 637.992 346.662C628.983 346.662 620.642 342.953 614.529 336.219L555.553 271.338L468.689 283.149C467.24 283.34 465.76 283.435 464.295 283.435C453.057 283.435 442.551 277.355 436.853 267.549C431.106 257.648 431.075 245.773 436.757 235.809L480.245 159.673L442.185 80.7041C437.394 70.7713 438.031 59.2944 443.873 49.9824C449.746 40.6227 459.806 35.0354 470.742 35.0354C472.939 35.0354 475.151 35.2583 477.332 35.7199L563.162 53.5321L579.446 37.9644C527.203 13.5939 468.943 0 407.5 0C346.057 0 287.797 13.5939 235.554 37.9644L251.838 53.5321L337.668 35.7199C339.849 35.2583 342.061 35.0354 344.258 35.0354C355.209 35.0354 365.254 40.6227 371.127 49.9824C376.969 59.2944 377.606 70.7713 372.831 80.7041L334.755 159.673L378.243 235.809C383.925 245.773 383.894 257.648 378.147 267.549C372.449 277.355 361.943 283.435 350.705 283.435C349.24 283.435 347.776 283.34 346.311 283.149L259.447 271.354L200.471 336.219C194.358 342.953 186.017 346.662 177.008 346.662C161.551 346.662 148.34 335.646 145.586 320.476L129.97 234.217L56.1745 200.948C20.4705 261.516 0 332.112 0 407.5C0 632.548 182.452 815 407.5 815C632.548 815 815 632.548 815 407.5C815 332.112 794.529 261.516 758.825 200.948ZM610.454 406.847C610.454 518.512 519.929 609.037 408.28 609.037H407.5C295.406 609.037 204.546 518.162 204.546 406.083C204.546 393.906 209.48 382.859 217.471 374.884C225.462 366.893 236.477 361.959 248.671 361.959H566.329C590.7 361.959 610.454 381.713 610.454 406.083V406.847ZM522.778 553.675C491.165 578.379 451.418 593.119 408.28 593.119H407.5C364.139 593.119 324.185 578.284 292.429 553.436C320.874 522.157 361.895 502.546 407.5 502.546C453.105 502.546 494.348 522.269 522.778 553.675ZM587.771 387.794C583.823 413.135 561.904 432.555 535.449 432.555H279.551C253.08 432.555 231.161 413.119 227.229 387.762C229.868 384.653 233.154 382.158 236.858 380.45C240.561 378.743 244.593 377.865 248.671 377.877H566.329C574.909 377.877 582.598 381.729 587.771 387.794ZM664.336 14.1988L673.903 101.35C674.187 103.914 675.088 106.372 676.53 108.512C677.972 110.653 679.91 112.411 682.18 113.638L759.399 155.152C771.019 161.408 770.43 178.265 758.396 183.677L678.472 219.716C673.696 221.865 670.29 226.242 669.351 231.384L653.719 317.643C651.363 330.632 635.143 335.28 626.277 325.507L567.316 260.625C565.582 258.711 563.407 257.249 560.98 256.367C558.553 255.485 555.946 255.209 553.388 255.563L466.524 267.358C453.455 269.141 444.016 255.149 450.558 243.688L494.03 167.568C496.625 163.016 496.816 157.476 494.539 152.765L456.48 73.7957C450.749 61.905 461.144 48.6135 474.053 51.3036L559.883 69.1317C565.008 70.1982 570.341 68.6701 574.129 65.0408L637.515 4.44111C647.05 -4.67988 662.904 1.09834 664.336 14.1988ZM177.485 4.44111L240.839 65.0408C244.627 68.6701 249.944 70.1823 255.085 69.1317L340.915 51.3036C353.841 48.6135 364.219 61.9209 358.489 73.7957L320.429 152.765C318.152 157.476 318.343 163.016 320.938 167.568L364.41 243.688C370.952 255.149 361.513 269.125 348.444 267.358L261.58 255.563C256.391 254.863 251.186 256.757 247.652 260.625L188.692 325.507C179.825 335.264 163.605 330.616 161.249 317.643L145.618 231.384C145.157 228.845 144.086 226.456 142.497 224.424C140.908 222.391 138.849 220.775 136.497 219.716L56.5725 183.677C44.5385 178.249 43.9495 161.392 55.5696 155.152L132.788 113.638C135.061 112.416 137.003 110.658 138.445 108.517C139.887 106.376 140.786 103.916 141.065 101.35L150.632 14.1988C152.064 1.08242 167.919 -4.67988 177.454 4.44111H177.485Z" fill="#5E2E86"/>
</g>
<defs>
<clipPath id="clip0_14_7">
<rect width="815" height="815" fill="white"/>
</clipPath>
</defs>
</svg>
